<?xml version="1.0" encoding="UTF-8"?>
<svg id="Layer_2" data-name="Layer 2" xmlns="http://www.w3.org/2000/svg" viewBox="0 0 96.82 59.26">
  <defs>
    <style>
      .cls-1 {
        fill: #444;
        fill-rule: evenodd;
      }
    </style>
  </defs>
  <g id="Capa_1" data-name="Capa 1">
    <path class="cls-1" d="M64.84,10.99l-27.15,7.85-4.03-9.66h4.17c.92,0,1.67-.75,1.67-1.67s-.75-1.67-1.67-1.67h-9.55c-.42,0-.82.17-1.12.46-.3.3-.46.7-.46,1.12v.18c0,.42.17.82.46,1.12.3.3.7.46,1.12.46h1.75l4.73,11.34-6.64,7.25c-2.95-2.24-6.62-3.57-10.6-3.57C7.86,24.2,0,32.06,0,41.73s7.86,17.53,17.53,17.53,17.07-7.41,17.51-16.69h10.03c.46,0,.91-.19,1.23-.54l21.56-23.38,3.04,7.69c-5.44,2.98-9.14,8.75-9.14,15.39,0,9.67,7.86,17.53,17.53,17.53s17.52-7.86,17.52-17.53-7.85-17.53-17.52-17.53c-1.86,0-3.64.29-5.32.82l-7.55-19.09,6.8-2.72c.86-.34,1.27-1.32.93-2.17-.34-.86-1.31-1.27-2.17-.93l-8.34,3.34c-.86.34-1.27,1.31-.93,2.16l2.12,5.37ZM25.86,30.25c-2.34-1.7-5.22-2.71-8.33-2.71-7.83,0-14.19,6.36-14.19,14.19s6.36,14.19,14.19,14.19,13.73-5.91,14.16-13.35h-13.33c-.66,0-1.26-.39-1.53-1-.27-.61-.15-1.31.3-1.8l8.73-9.52ZM72.15,29.47c-4.21,2.46-7.04,7.03-7.04,12.26,0,7.83,6.36,14.19,14.19,14.19s14.19-6.36,14.19-14.19-6.36-14.19-14.19-14.19c-1.42,0-2.79.21-4.08.6l4.8,12.14c.34.86-.08,1.83-.94,2.17-.86.34-1.83-.08-2.17-.94l-4.76-12.04ZM34.88,39.23h7.69l-6.38-15.31-5.61,6.12c2.26,2.52,3.79,5.69,4.3,9.19h0ZM22.16,39.23l6.15-6.71c1.61,1.88,2.73,4.18,3.18,6.71h-9.34ZM38.99,21.95l27.09-7.83.43,1.09-20.89,22.65-6.63-15.9Z"/>
  </g>
</svg>