<?xml version="1.0" encoding="UTF-8"?>
<svg id="Layer_2" data-name="Layer 2" xmlns="http://www.w3.org/2000/svg" viewBox="0 0 81.55 52.47">
  <defs>
    <style>
      .cls-1 {
        fill: #444;
      }
    </style>
  </defs>
  <g id="Capa_1" data-name="Capa 1">
    <path class="cls-1" d="M45.85,22.04h9.65v-11.59c0-.51.42-.93.93-.93h6.51c.51,0,.93.42.93.93v11.59h9.64c1.41,0,2.55-1.14,2.55-2.54V2.54c0-1.4-1.14-2.54-2.55-2.54h-27.65c-1.4,0-2.54,1.14-2.54,2.54v16.96c0,1.4,1.14,2.54,2.54,2.54h0ZM62.01,11.38h-4.66v15.96h4.66v-15.96ZM54.03,27.34c-.6,0-1.1.49-1.1,1.1v1.56h13.51v-1.56c0-.61-.5-1.1-1.1-1.1h-11.3,0ZM0,29.6v3.49h81.55v-3.49H0ZM4.02,52.47h73.5v-19.38H4.02v19.38ZM29.92,7.53c0,3.83-3.1,6.93-6.93,6.93s-6.93-3.1-6.93-6.93S19.17.6,22.99.6s6.93,3.1,6.93,6.93ZM11.29,29.6c0-6.46,5.24-11.7,11.7-11.7s11.7,5.24,11.7,11.7"/>
  </g>
</svg>