<?xml version="1.0" encoding="UTF-8"?>
<svg id="Layer_2" data-name="Layer 2" xmlns="http://www.w3.org/2000/svg" viewBox="0 0 66.9 69.37">
  <defs>
    <style>
      .cls-1 {
        fill: #444;
      }
    </style>
  </defs>
  <g id="Capa_1" data-name="Capa 1">
    <g>
      <path class="cls-1" d="M28.98,0H1.56C.66,0,0,.85,0,1.65h0v66.07c0,.86.79,1.65,1.65,1.65h27.33c.86,0,1.65-.79,1.65-1.65V1.65c0-.86-.79-1.65-1.65-1.65ZM23.25,29.84H7.79c-.86.04-1.69-.71-1.73-1.57h0c-.04-.86.71-1.73,1.65-1.73h15.54c.87-.01,1.67.78,1.67,1.65s-.8,1.66-1.67,1.65ZM23.25,21.89H7.79c-.86.04-1.69-.71-1.73-1.57h0c-.04-.86.71-1.73,1.65-1.73h15.54c.87-.01,1.67.78,1.67,1.65s-.8,1.66-1.67,1.65ZM23.25,13.94H7.79c-.86.04-1.69-.71-1.73-1.57h0c-.04-.86.71-1.73,1.65-1.73h15.54c.87-.01,1.67.78,1.67,1.65s-.8,1.66-1.67,1.65Z"/>
      <path class="cls-1" d="M65.24,0h-27.41c-.89,0-1.58.84-1.57,1.65h0v66.07c0,.86.79,1.65,1.65,1.65h27.33c.86,0,1.65-.79,1.65-1.65V1.65c0-.86-.79-1.65-1.65-1.65ZM59.31,29.84h-15.46c-.86.04-1.69-.71-1.73-1.57h0c-.04-.86.71-1.73,1.65-1.73h15.54c.87-.01,1.67.78,1.67,1.65s-.8,1.66-1.67,1.65ZM59.31,21.89h-15.46c-.86.04-1.69-.71-1.73-1.57h0c-.04-.86.71-1.73,1.65-1.73h15.54c.87-.01,1.67.78,1.67,1.65s-.8,1.66-1.67,1.65ZM59.31,13.94h-15.46c-.86.04-1.69-.71-1.73-1.57h0c-.04-.86.71-1.73,1.65-1.73h15.54c.87-.01,1.67.78,1.67,1.65s-.8,1.66-1.67,1.65Z"/>
    </g>
  </g>
</svg>