<?xml version="1.0" encoding="UTF-8"?>
<svg id="Layer_2" data-name="Layer 2" xmlns="http://www.w3.org/2000/svg" viewBox="0 0 66.82 64.07">
  <defs>
    <style>
      .cls-1 {
        fill: #444;
      }
    </style>
  </defs>
  <g id="Capa_1" data-name="Capa 1">
    <path class="cls-1" d="M33.41,0C14.67,0,0,5.63,0,12.82v17.46c0,3.75,4.04,7.08,10.55,9.4v.14c0,13.37,10.25,24.25,22.86,24.25s22.92-10.81,22.86-24.38c6.51-2.32,10.55-5.65,10.55-9.41V12.82C66.82,5.63,52.15,0,33.41,0h0ZM33.41,62.76c-11.88,0-21.55-10.29-21.55-22.94,0-2.43.35-4.83,1.06-7.12.17-.55.56-.98,1.08-1.19,2.69-1.05,5.4-1.87,8.08-2.48v16.21c0,6.26,5.06,11.33,11.33,11.33s11.33-5.08,11.33-11.33v-16.21c2.68.61,5.39,1.44,8.08,2.48.52.2.91.64,1.08,1.19,4.56,14.79-5.87,30.06-20.49,30.06h0ZM23.39,45.25v-16.49c3.29-.66,6.53-1.01,10.01-1.02h0c3.39,0,6.79.37,10.02,1.02v16.49c0,5.52-4.49,10.02-10.02,10.02s-10.02-4.48-10.02-10.02h0ZM56.22,38.27c-.12-2.03-.47-4.03-1.07-5.96-.29-.93-.96-1.66-1.85-2.02-13.23-5.16-26.53-5.17-39.78,0-.89.35-1.57,1.09-1.85,2.02-.6,1.93-.94,3.92-1.07,5.95-5.71-2.08-9.29-4.91-9.29-7.98,0-6.24,14.7-11.51,32.1-11.51s32.1,5.27,32.1,11.51c0,3.07-3.59,5.91-9.29,7.99h0Z"/>
  </g>
</svg>