<?xml version="1.0" encoding="UTF-8"?>
<svg id="Layer_2" data-name="Layer 2" xmlns="http://www.w3.org/2000/svg" viewBox="0 0 77.57 51.72">
  <defs>
    <style>
      .cls-1 {
        fill: #444;
        fill-rule: evenodd;
      }
    </style>
  </defs>
  <g id="Capa_1" data-name="Capa 1">
    <path class="cls-1" d="M19.96,0c-2.45,0-4.68,1.38-5.78,3.57l-4.17,8.32c-.49-.32-1.08-.51-1.71-.51H3.1c-1.71,0-3.1,1.39-3.1,3.1s1.39,3.1,3.1,3.1h4.05l-1.91,3.8c-.45.9-.69,1.89-.69,2.9v14.76h0v10.08c0,1.43,1.16,2.59,2.59,2.59h8.52c1.43,0,2.59-1.16,2.59-2.59v-3.62h41.07v3.62c0,1.43,1.16,2.59,2.59,2.59h8.52c1.43,0,2.59-1.16,2.59-2.59v-24.85c0-1.01-.23-2-.69-2.9l-1.91-3.8h4.05c1.71,0,3.1-1.39,3.1-3.1s-1.39-3.1-3.1-3.1h-5.2c-.63,0-1.22.19-1.71.51l-4.17-8.32c-1.1-2.19-3.33-3.57-5.78-3.57H19.96ZM12.45,26.46c-1.73-.31-3.33,1.02-3.33,2.78,0,1.56,1.26,2.82,2.82,2.82h6.33c1.25,0,2.25-1.01,2.25-2.25,0-1.09-.78-2.02-1.85-2.22l-6.23-1.13ZM57.04,29.81c0-1.09.78-2.02,1.85-2.22l6.23-1.13c1.73-.31,3.33,1.02,3.33,2.78,0,1.56-1.26,2.82-2.82,2.82h-6.33c-1.25,0-2.25-1.01-2.25-2.25ZM30.95,37.24c-.71,0-1.29.58-1.29,1.29v1.55c0,.71.58,1.29,1.29,1.29h15.67c.71,0,1.29-.58,1.29-1.29v-1.55c0-.71-.58-1.29-1.29-1.29h-15.67ZM17.5,4.17c.29-.65.94-1.06,1.65-1.06h39.28c.71,0,1.35.42,1.65,1.06l4.93,10.86c.54,1.2-.33,2.56-1.65,2.56H14.22c-1.32,0-2.19-1.36-1.65-2.56l4.93-10.86Z"/>
  </g>
</svg>