<?xml version="1.0" encoding="UTF-8"?>
<svg id="Layer_2" data-name="Layer 2" xmlns="http://www.w3.org/2000/svg" viewBox="0 0 74.59 75.19">
  <defs>
    <style>
      .cls-1 {
        fill: #444;
        fill-rule: evenodd;
      }
    </style>
  </defs>
  <g id="Capa_1" data-name="Capa 1">
    <path class="cls-1" d="M13.4,21.93h-7.09v-6.45C6.3,6.97,13.27,0,21.79,0s15.48,6.97,15.48,15.49h-7.09c0-4.61-3.79-8.4-8.39-8.4s-8.39,3.79-8.39,8.4v6.45ZM30.62,60.19H2.83c-1.56,0-2.83-1.26-2.83-2.83v-30.14c0-1.55,1.27-2.83,2.83-2.83h37.91c1.56,0,2.83,1.27,2.83,2.83v5.35c-8.12,3.74-13.76,11.95-13.76,21.47,0,2.13.28,4.19.81,6.15ZM21.79,31.54c-3.04,0-5.51,2.47-5.51,5.51,0,1.99,1.05,3.72,2.62,4.69v8.41c0,1.59,1.3,2.89,2.89,2.89s2.89-1.3,2.89-2.89v-8.41c1.57-.97,2.62-2.71,2.62-4.69,0-3.04-2.47-5.51-5.51-5.51ZM53.43,32.88c11.68,0,21.16,9.48,21.16,21.16s-9.48,21.16-21.16,21.16-21.16-9.48-21.16-21.16,9.48-21.16,21.16-21.16ZM40.92,64.48c-.04.22.02.45.17.62.15.17.36.27.59.27,3.91,0,19.61,0,23.51,0,.23,0,.44-.1.59-.27.15-.17.21-.4.17-.63-1.07-5.94-6.27-10.45-12.52-10.45s-11.44,4.51-12.51,10.45ZM53.43,52.5c3.54,0,6.43-2.89,6.43-6.43s-2.89-6.43-6.43-6.43-6.43,2.89-6.43,6.43,2.89,6.43,6.43,6.43Z"/>
  </g>
</svg>