<?xml version="1.0" encoding="UTF-8"?>
<svg id="Layer_2" data-name="Layer 2" xmlns="http://www.w3.org/2000/svg" viewBox="0 0 58.84 68.65">
  <defs>
    <style>
      .cls-1 {
        fill: #444;
      }
    </style>
  </defs>
  <g id="Capa_1" data-name="Capa 1">
    <g>
      <path class="cls-1" d="M33.1,49.03h-7.36c-.68,0-1.23.55-1.23,1.23v1.23h-4.02c-.68-1.17-2.18-1.57-3.35-.9-1.17.68-1.57,2.18-.9,3.35.68,1.17,2.18,1.57,3.35.9.37-.22.68-.52.9-.9h12.6c.68,0,1.23-.55,1.23-1.23v-2.45c0-.68-.55-1.23-1.23-1.23ZM33.1,49.03h-7.36c-.68,0-1.23.55-1.23,1.23v1.23h-4.02c-.68-1.17-2.18-1.57-3.35-.9-1.17.68-1.57,2.18-.9,3.35.68,1.17,2.18,1.57,3.35.9.37-.22.68-.52.9-.9h12.6c.68,0,1.23-.55,1.23-1.23v-2.45c0-.68-.55-1.23-1.23-1.23ZM33.1,49.03h-7.36c-.68,0-1.23.55-1.23,1.23v1.23h-4.02c-.68-1.17-2.18-1.57-3.35-.9-1.17.68-1.57,2.18-.9,3.35.68,1.17,2.18,1.57,3.35.9.37-.22.68-.52.9-.9h12.6c.68,0,1.23-.55,1.23-1.23v-2.45c0-.68-.55-1.23-1.23-1.23ZM33.1,49.03h-7.36c-.68,0-1.23.55-1.23,1.23v1.23h-4.02c-.68-1.17-2.18-1.57-3.35-.9-1.17.68-1.57,2.18-.9,3.35.68,1.17,2.18,1.57,3.35.9.37-.22.68-.52.9-.9h12.6c.68,0,1.23-.55,1.23-1.23v-2.45c0-.68-.55-1.23-1.23-1.23ZM33.1,49.03h-7.36c-.68,0-1.23.55-1.23,1.23v1.23h-4.02c-.68-1.17-2.18-1.57-3.35-.9-1.17.68-1.57,2.18-.9,3.35.68,1.17,2.18,1.57,3.35.9.37-.22.68-.52.9-.9h12.6c.68,0,1.23-.55,1.23-1.23v-2.45c0-.68-.55-1.23-1.23-1.23Z"/>
      <path class="cls-1" d="M57.62,63.74h-4.9c-.68,0-1.23.55-1.23,1.23v1.23h-3.02l-3.55-5.32c6.55-1.7,10.49-8.39,8.8-14.94-1.42-5.47-6.38-9.26-12.03-9.19h-1.23c-1.83.04-3.34-1.42-3.38-3.24-.01-.58.13-1.15.41-1.66l4.19-8.16h0c.67,1.17,2.16,1.57,3.33.91l8.51-4.9c.76-.44,1.23-1.25,1.23-2.13,0-.43-.12-.85-.34-1.23-.1-.14-.21-.28-.34-.39l2.33-4.36c.2-.37.2-.81,0-1.18-.23-.36-.63-.58-1.05-.59h-7.23l2.67-1.23h0l2.45-1.2c.33-.13.58-.38.71-.71l2.45-4.9c.2-.37.2-.81,0-1.18-.23-.36-.63-.58-1.05-.59h-2.45c-.47,0-.89.27-1.1.69l-2.45,4.9c-.14.15-.24.34-.29.54v.47l-6.67,3.33h-.12c-.13.11-.24.24-.32.39h0l-3.02,6.84h-.91c-.45,0-.86.25-1.08.64l-11.89,21.43h-2.62c-1.75-.01-3.26-1.25-3.6-2.97l-1.64-8.31c-.12-.57-.62-.98-1.2-.98h-1.5l-.88-3.87c-.12-.57-.62-.97-1.2-.96h-2.57v-2.45h6.13c.68,0,1.23-.55,1.23-1.22,0-.03,0-.05,0-.08,0-3.39-2.74-6.13-6.13-6.13H1.23c-.68,0-1.23.55-1.23,1.23v4.9c0,.68.55,1.23,1.23,1.23h6.13v2.45h-3.7c-.67.01-1.2.56-1.2,1.23,0,.68.55,1.23,1.23,1.23h7.72l.54,2.45h-.91c-.36,0-.69.15-.93.42-.22.27-.32.61-.29.96l2.45,18.56c-3.23,3.41-3.08,8.8.34,12.03.32.3.65.57,1.01.82l-3.33,6.45h-2.92v-1.23c0-.68-.55-1.23-1.23-1.23H1.23c-.68,0-1.23.55-1.23,1.23v2.45c0,.68.55,1.23,1.23,1.23h56.39c.68,0,1.23-.55,1.23-1.23v-2.45c0-.68-.55-1.23-1.23-1.23ZM43.71,12.26h9.46l-1.5,3.02c-.22.04-.44.11-.64.22l-7.48,4.32.56-.88c.2-.37.2-.81,0-1.18-.23-.36-.63-.58-1.05-.59h-1.4l2.03-4.9ZM17.92,66.2l1.23-2.45h13.95c1.91.08,3.69.97,4.9,2.45h-20.08ZM42.44,51.34h-.22l-21.89,7.09c-1.29.44-2.68.44-3.97,0-.24-.07-.48-.16-.71-.27-3.01-1.56-4.18-5.25-2.63-8.26,1.04-2.01,3.11-3.28,5.37-3.31h23.29c1.35,0,2.45,1.1,2.45,2.45-.01,1.05-.69,1.98-1.69,2.3Z"/>
    </g>
  </g>
</svg>