<?xml version="1.0" encoding="UTF-8"?>
<svg id="Layer_2" data-name="Layer 2" xmlns="http://www.w3.org/2000/svg" viewBox="0 0 99.44 69.54">
  <defs>
    <style>
      .cls-1 {
        fill: #444;
      }
    </style>
  </defs>
  <g id="Capa_1" data-name="Capa 1">
    <g>
      <path class="cls-1" d="M7.63,14.81c.53-.04,1.01-.35,1.25-.83.25-.47.23-1.04-.04-1.5-.75-1.28-1.15-2.72-1.15-4.19C7.69,3.72,11.42,0,15.99,0c2.53,0,4.9,1.14,6.49,3.13.59.74,1.83.73,2.42,0,1.59-1.99,3.95-3.13,6.48-3.13,4.57,0,8.3,3.72,8.3,8.29,0,1.46-.39,2.91-1.14,4.18-.27.46-.28,1.03-.03,1.51.25.48.73.79,1.26.83,4.32.31,7.7,3.94,7.7,8.26s-3.36,7.94-7.67,8.26c-.53.04-1.01.35-1.25.82-.25.47-.24,1.03.03,1.5.72,1.26,1.11,2.69,1.11,4.13,0,4.57-3.72,8.29-8.3,8.29-2.36,0-4.57-1.01-6.14-2.75v-13.38c3.19-.39,6.12-2,8.19-4.53.54-.67.44-1.64-.22-2.18-.67-.54-1.64-.44-2.18.22-1.48,1.81-3.53,2.98-5.79,3.36v-8.53c0-.85-.69-1.55-1.54-1.55s-1.55.69-1.55,1.55v8.53c-2.26-.37-4.31-1.54-5.79-3.36-.54-.66-1.51-.76-2.18-.22-.67.54-.76,1.51-.22,2.18,2.07,2.54,4.99,4.14,8.19,4.53v13.38c-1.58,1.75-3.78,2.75-6.15,2.75-4.57,0-8.3-3.72-8.3-8.29,0-1.44.38-2.87,1.11-4.13.27-.46.28-1.02.03-1.49-.24-.47-.71-.78-1.24-.83C3.34,30.97,0,27.34,0,23.07s3.35-7.92,7.63-8.26h0Z"/>
      <path class="cls-1" d="M91.77,31.33c-.53.04-1.01.35-1.25.82-.25.47-.24,1.03.03,1.5.72,1.26,1.11,2.69,1.11,4.13,0,4.57-3.72,8.29-8.3,8.29-2.36,0-4.57-1-6.14-2.75v-13.38c3.2-.39,6.12-2,8.19-4.53.54-.67.44-1.64-.22-2.18-.66-.54-1.64-.44-2.18.22-1.48,1.81-3.53,2.98-5.79,3.36v-8.53c0-.85-.69-1.55-1.55-1.55s-1.55.69-1.55,1.55v8.53c-2.26-.37-4.31-1.54-5.79-3.36-.54-.66-1.51-.76-2.18-.22-.67.54-.76,1.51-.22,2.18,2.07,2.54,4.99,4.14,8.19,4.53v13.38c-1.57,1.75-3.78,2.76-6.15,2.76-4.57,0-8.3-3.72-8.3-8.29,0-1.45.38-2.87,1.11-4.13.27-.46.28-1.02.03-1.49-.25-.47-.71-.78-1.24-.83-4.26-.36-7.59-3.99-7.59-8.26s3.35-7.92,7.63-8.26c.53-.04,1.01-.35,1.25-.83.25-.47.23-1.04-.04-1.5-.75-1.28-1.15-2.72-1.15-4.19C59.67,3.73,63.4,0,67.97,0c2.53,0,4.89,1.14,6.48,3.13.3.37.74.58,1.21.58s.92-.21,1.21-.58C78.46,1.15,80.83,0,83.36,0c4.57,0,8.3,3.72,8.3,8.29,0,1.46-.39,2.91-1.14,4.18-.27.46-.28,1.03-.03,1.51.25.48.73.79,1.26.83,4.31.3,7.69,3.93,7.69,8.25s-3.36,7.94-7.67,8.26h0Z"/>
      <path class="cls-1" d="M73.23,41.89h4.97v27.65h-4.97v-27.65Z"/>
      <path class="cls-1" d="M21.24,41.89h4.97v27.65h-4.97v-27.65Z"/>
      <path class="cls-1" d="M99.44,62.09v7.46H0v-7.46h99.44Z"/>
    </g>
  </g>
</svg>