<?xml version="1.0" encoding="UTF-8"?>
<svg id="Layer_2" data-name="Layer 2" xmlns="http://www.w3.org/2000/svg" viewBox="0 0 61.22 62.81">
  <defs>
    <style>
      .cls-1 {
        fill: #444;
      }
    </style>
  </defs>
  <g id="Capa_1" data-name="Capa 1">
    <path class="cls-1" d="M61.22,37.74v8.78c-3.34-1.93-7.55-1.43-10.35,1.23-1.53,1.52-4,1.52-5.53,0-3.35-3.18-8.61-3.18-11.96,0-1.53,1.52-4.01,1.52-5.55,0-3.35-3.18-8.61-3.18-11.96,0-1.53,1.52-4,1.52-5.53,0C7.55,45.09,3.34,44.59,0,46.52v-8.78c1.15-1.17,2.73-1.82,4.37-1.82s3.21.66,4.37,1.82c2.42,2.41,6.34,2.41,8.76,0,1.16-1.17,2.73-1.82,4.38-1.82s3.22.66,4.38,1.82c2.41,2.41,6.32,2.41,8.73,0,1.16-1.17,2.73-1.82,4.38-1.82s3.22.66,4.38,1.82c2.42,2.41,6.34,2.41,8.76,0,1.15-1.17,2.73-1.82,4.37-1.82s3.21.66,4.37,1.82h0ZM54.08,50.98h0c-3.31,3.3-8.66,3.3-11.96,0-1.55-1.48-3.98-1.48-5.53,0-3.31,3.3-8.66,3.3-11.96,0-1.55-1.48-3.98-1.48-5.53,0-3.31,3.3-8.66,3.3-11.96,0-1.55-1.48-3.99-1.48-5.55,0-.42.42-.99.66-1.59.66v9.35c2.41-2.41,6.32-2.41,8.73,0,1.16,1.17,2.73,1.83,4.38,1.83s3.22-.66,4.38-1.83c2.42-2.41,6.34-2.41,8.76,0,1.15,1.17,2.73,1.83,4.37,1.83s3.21-.66,4.37-1.83c2.42-2.41,6.34-2.41,8.76,0,1.16,1.17,2.73,1.83,4.38,1.83s3.22-.66,4.38-1.83c2.41-2.41,6.32-2.41,8.73,0v-9.35c-.6,0-1.17-.24-1.59-.66-1.55-1.48-3.99-1.48-5.55,0h0ZM44.94,29.58V7.22c0-1.48,1.2-2.68,2.68-2.68s2.68,1.2,2.68,2.68c.04,1.25,1.08,2.24,2.33,2.2,1.25-.03,2.24-1.07,2.22-2.32-.24-9.35-14.23-9.41-14.46.06v5.51h-19.56v-5.46c0-1.48,1.2-2.68,2.68-2.68,1.48,0,2.68,1.2,2.68,2.68.04,1.25,1.08,2.23,2.33,2.2,1.25-.03,2.24-1.06,2.22-2.31C30.67,3.15,27.44-.02,23.48,0c-3.95.01-7.16,3.2-7.2,7.16v22.42c.02,1.24,1.03,2.24,2.27,2.24s2.26-1,2.28-2.24v-3.06h19.56v3.06h0c.02,1.24,1.03,2.24,2.28,2.24s2.26-1,2.27-2.24h0ZM20.83,17.22h19.56v4.75h-19.56v-4.75Z"/>
  </g>
</svg>