<?xml version="1.0" encoding="UTF-8"?>
<svg id="Layer_2" data-name="Layer 2" xmlns="http://www.w3.org/2000/svg" viewBox="0 0 68.66 68.65">
  <defs>
    <style>
      .cls-1 {
        fill: #444;
      }
    </style>
  </defs>
  <g id="Capa_1" data-name="Capa 1">
    <path class="cls-1" d="M51.49,34.32c0,4.55-1.81,8.92-5.03,12.14-3.22,3.22-7.58,5.03-12.14,5.03s-8.92-1.81-12.14-5.03c-3.22-3.22-5.03-7.58-5.03-12.14s1.81-8.92,5.03-12.14c3.22-3.22,7.58-5.03,12.14-5.03,4.55,0,8.91,1.81,12.13,5.03,3.22,3.22,5.03,7.58,5.03,12.13h0ZM34.32,12.26c.65,0,1.27-.26,1.73-.72.46-.46.72-1.08.72-1.73V2.45c0-1.35-1.1-2.45-2.45-2.45s-2.45,1.1-2.45,2.45v7.36c0,.65.26,1.27.72,1.73.46.46,1.08.72,1.73.72h0ZM12.26,34.32c0-.65-.26-1.27-.72-1.73-.46-.46-1.08-.72-1.73-.72H2.45c-1.35,0-2.45,1.1-2.45,2.45s1.1,2.45,2.45,2.45h7.36c.65,0,1.27-.26,1.73-.72.46-.46.72-1.08.72-1.73h0ZM15.12,49.77l-5.25,5.15c-.92.96-.91,2.47.02,3.41.93.95,2.44.98,3.41.09l5.25-5.15c.49-.45.77-1.08.79-1.74.02-.67-.24-1.31-.7-1.78-.46-.48-1.1-.74-1.76-.74-.67,0-1.3.28-1.76.75h0ZM53.26,50.11c-.96-.92-2.47-.91-3.41.02-.95.93-.98,2.44-.09,3.41l5.15,5.25h0c.96.92,2.47.91,3.41-.02.95-.93.98-2.44.09-3.41l-5.15-5.25ZM66.22,32.17l-7.36-.06h-.02c-1.35,0-2.46,1.08-2.46,2.44,0,1.35,1.09,2.45,2.44,2.46l7.36.06h.02c1.35,0,2.45-1.09,2.46-2.44,0-1.35-1.09-2.45-2.44-2.46h0ZM51.81,19.59c.64,0,1.26-.25,1.72-.7l5.25-5.15c.92-.96.91-2.47-.02-3.41-.93-.95-2.44-.98-3.41-.09l-5.25,5.15c-.71.7-.93,1.76-.55,2.68.37.92,1.27,1.52,2.26,1.53h0ZM15.41,18.54c.95.94,2.49.95,3.44,0,.96-.94.98-2.47.06-3.44l-5.15-5.25c-.45-.49-1.08-.77-1.74-.79-.67-.02-1.31.24-1.78.7-.48.46-.74,1.1-.74,1.76,0,.67.28,1.3.75,1.76l5.15,5.25ZM34.32,56.39c-1.35,0-2.45,1.1-2.45,2.45v7.36c0,1.35,1.1,2.45,2.45,2.45s2.45-1.1,2.45-2.45v-7.36c0-.65-.26-1.27-.72-1.73-.46-.46-1.08-.72-1.73-.72h0Z"/>
  </g>
</svg>