<?xml version="1.0" encoding="UTF-8"?>
<svg id="Layer_2" data-name="Layer 2" xmlns="http://www.w3.org/2000/svg" viewBox="0 0 82.43 56.97">
  <defs>
    <style>
      .cls-1 {
        fill: #444;
        fill-rule: evenodd;
      }
    </style>
  </defs>
  <g id="Capa_1" data-name="Capa 1">
    <path class="cls-1" d="M0,56.97v-4.85c0-6.69,5.43-12.12,12.12-12.12h0c6.7,0,12.12,5.43,12.12,12.12v4.85M29.09,56.97v-4.85c0-6.69,5.43-12.12,12.12-12.12h0c6.7,0,12.12,5.43,12.12,12.12v4.85M58.18,56.97v-4.85c0-6.69,5.43-12.12,12.12-12.12h0c6.7,0,12.12,5.43,12.12,12.12v4.85M12.12,33.94c-4.02,0-7.27-3.26-7.27-7.27s3.26-7.27,7.27-7.27,7.27,3.26,7.27,7.27-3.26,7.27-7.27,7.27ZM70.31,33.94c-4.02,0-7.27-3.26-7.27-7.27s3.26-7.27,7.27-7.27,7.27,3.26,7.27,7.27-3.26,7.27-7.27,7.27ZM41.21,33.94c-4.02,0-7.27-3.26-7.27-7.27s3.26-7.27,7.27-7.27,7.27,3.26,7.27,7.27-3.26,7.27-7.27,7.27ZM26.67,14.55c-4.02,0-7.27-3.26-7.27-7.27S22.65,0,26.67,0s7.27,3.26,7.27,7.27-3.26,7.27-7.27,7.27ZM56.97,14.55c-4.02,0-7.27-3.26-7.27-7.27s3.26-7.27,7.27-7.27,7.27,3.26,7.27,7.27-3.26,7.27-7.27,7.27Z"/>
  </g>
</svg>