<?xml version="1.0" encoding="UTF-8"?>
<svg id="Layer_2" data-name="Layer 2" xmlns="http://www.w3.org/2000/svg" viewBox="0 0 62.12 68.07">
  <defs>
    <style>
      .cls-1 {
        fill: #444;
      }
    </style>
  </defs>
  <g id="Capa_1" data-name="Capa 1">
    <g>
      <path class="cls-1" d="M1.36,68.07h59.4c.76,0,1.36-.59,1.36-1.36s-.59-1.36-1.36-1.36h-6.64c1.45-.68,2.38-2.13,2.38-3.83v-1.96h-4.59v-4.85h-1.96v4.85h-4.59v1.96c0,1.7,1.02,3.15,2.38,3.83h-11.49s0-2.29,0-2.29h-2.64v2.3H13.62v-2.3h-2.64v2.3H1.36c-.76,0-1.36.59-1.36,1.36.09.76.68,1.36,1.36,1.36h0Z"/>
      <path class="cls-1" d="M39.82,16.93v-1.96h-20.17v1.96c0,.94.76,1.79,1.79,1.79h6.98v23.14h-13.36c-.68,0-1.28.59-1.28,1.27v11.4c.59-.34,1.28-.59,1.96-.59h14.13c.68,0,1.36.26,1.96.59v-11.4c0-.51-.34-1.02-.85-1.19v-23.23s6.97,0,6.97,0c1.02,0,1.87-.76,1.87-1.79h0Z"/>
      <path class="cls-1" d="M41.61,16.93c0,.94.76,1.79,1.79,1.79h12.08c.94,0,1.79-.76,1.79-1.79v-1.96h-15.66s0,1.96,0,1.96Z"/>
      <path class="cls-1" d="M54.63,13.28L32.67,1.11l8.51,12.17h13.45Z"/>
      <path class="cls-1" d="M38.97,13.28L29.7,0l-9.27,13.28h18.55Z"/>
      <path class="cls-1" d="M26.8,1.11L4.85,13.28h13.45L26.8,1.11Z"/>
      <path class="cls-1" d="M4,18.72h12.08c.94,0,1.79-.76,1.79-1.79v-1.96H2.3v1.96c0,1.02.77,1.79,1.7,1.79h0Z"/>
      <path class="cls-1" d="M33.61,49.69v11.66h3.83v-9.02c0-1.45-1.19-2.64-2.64-2.64h-1.19Z"/>
      <path class="cls-1" d="M15.74,55.82c-1.11,0-1.96.85-1.96,1.96v3.57h18.13v-3.57c0-1.11-.85-1.96-1.96-1.96h-14.21Z"/>
      <path class="cls-1" d="M8.25,52.33v9.02h3.83v-11.66h-1.19c-1.45,0-2.64,1.19-2.64,2.64h0Z"/>
      <path class="cls-1" d="M52.25,47.48c-.26.68-.43,1.36-.43,2.21v1.87h.43c2.98-.09,5.36-2.55,5.36-5.53v-1.87h-.26c-2.3-.09-4.25,1.36-5.11,3.32h0Z"/>
      <path class="cls-1" d="M44.5,44.08h-.26v1.87c0,2.98,2.38,5.44,5.36,5.53h.43v-1.87c0-.76-.17-1.53-.43-2.21-.85-1.87-2.81-3.32-5.11-3.32h0Z"/>
      <path class="cls-1" d="M51.48,44.5l.17-.17c2.13-2.13,2.13-5.62,0-7.83l-1.36-1.36-.17.17c-1.02,1.02-1.62,2.47-1.62,3.92s.59,2.89,1.62,3.92l1.36,1.36Z"/>
    </g>
  </g>
</svg>